<mxfile host="Electron" modified="2023-10-06T10:00:09.273Z" agent="Mozilla/5.0 (Macintosh; Intel Mac OS X 10_15_7) AppleWebKit/537.36 (KHTML, like Gecko) draw.io/21.1.2 Chrome/106.0.5249.199 Electron/21.4.3 Safari/537.36" etag="hYVsjfEX67gIRC-eAbYC" version="21.1.2" type="device">
  <diagram name="Page-1" id="eXLG5--639CLJ1-vFB1t">
    <mxGraphModel dx="1306" dy="836" grid="1" gridSize="10" guides="1" tooltips="1" connect="1" arrows="1" fold="1" page="1" pageScale="1" pageWidth="827" pageHeight="1169" math="0" shadow="0">
      <root>
        <mxCell id="0" />
        <mxCell id="1" parent="0" />
        <mxCell id="8v-cCngP12_YZm7iOqSM-1" value="System of local clouds" style="rounded=1;whiteSpace=wrap;html=1;fillColor=#00CC00;" parent="1" vertex="1">
          <mxGeometry x="320" y="80" width="120" height="60" as="geometry" />
        </mxCell>
        <mxCell id="8v-cCngP12_YZm7iOqSM-2" value="Local clouds" style="rounded=1;whiteSpace=wrap;html=1;fillColor=#00CC00;" parent="1" vertex="1">
          <mxGeometry x="320" y="200" width="120" height="60" as="geometry" />
        </mxCell>
        <mxCell id="8v-cCngP12_YZm7iOqSM-3" value="Microsystems" style="rounded=1;whiteSpace=wrap;html=1;fillColor=#00CC00;" parent="1" vertex="1">
          <mxGeometry x="320" y="320" width="120" height="60" as="geometry" />
        </mxCell>
        <mxCell id="8v-cCngP12_YZm7iOqSM-4" value="Microservices" style="rounded=1;whiteSpace=wrap;html=1;fillColor=#00CC00;" parent="1" vertex="1">
          <mxGeometry x="480" y="320" width="120" height="60" as="geometry" />
        </mxCell>
        <mxCell id="8v-cCngP12_YZm7iOqSM-5" value="Devices" style="rounded=1;whiteSpace=wrap;html=1;fillColor=#00CC00;" parent="1" vertex="1">
          <mxGeometry x="320" y="440" width="120" height="60" as="geometry" />
        </mxCell>
        <mxCell id="8v-cCngP12_YZm7iOqSM-6" value="Network" style="rounded=1;whiteSpace=wrap;html=1;fillColor=#00CC00;" parent="1" vertex="1">
          <mxGeometry x="320" y="560" width="120" height="60" as="geometry" />
        </mxCell>
      </root>
    </mxGraphModel>
  </diagram>
</mxfile>
